<svg width="139" height="42" viewBox="0 0 139 42" fill="none" xmlns="http://www.w3.org/2000/svg">
<g clip-path="url(#clip0_0_207)">
<rect x="68" y="16" width="71" height="26" rx="13" fill="#242D44"/>
<circle cx="81" cy="29" r="8" fill="#D03F2F"/>
<path d="M103.938 1.46C103.674 1.46 103.44 1.524 103.236 1.652C103.036 1.776 102.866 1.922 102.726 2.09C102.59 2.258 102.486 2.412 102.414 2.552C102.342 2.688 102.302 2.768 102.294 2.792L100.758 2.09C100.766 2.038 100.804 1.934 100.872 1.778C100.94 1.618 101.048 1.434 101.196 1.226C101.344 1.018 101.538 0.816 101.778 0.62C102.022 0.424 102.322 0.262 102.678 0.133999C103.034 0.00199938 103.454 -0.0640006 103.938 -0.0640006C104.498 -0.0640006 104.962 0.0159996 105.33 0.176C105.702 0.336 105.994 0.546 106.206 0.806C106.422 1.062 106.576 1.34 106.668 1.64C106.76 1.94 106.806 2.228 106.806 2.504C106.806 2.848 106.736 3.182 106.596 3.506C106.46 3.826 106.282 4.13 106.062 4.418C105.842 4.702 105.606 4.964 105.354 5.204C105.102 5.44 104.86 5.648 104.628 5.828C104.4 6.004 104.206 6.144 104.046 6.248C103.886 6.352 103.79 6.416 103.758 6.44H106.74V8H101.058V6.578C101.118 6.534 101.254 6.436 101.466 6.284C101.678 6.132 101.932 5.942 102.228 5.714C102.528 5.486 102.838 5.236 103.158 4.964C103.482 4.688 103.782 4.404 104.058 4.112C104.338 3.82 104.566 3.534 104.742 3.254C104.918 2.974 105.006 2.716 105.006 2.48C105.006 2.108 104.912 1.846 104.724 1.694C104.54 1.538 104.278 1.46 103.938 1.46Z" fill="white"/>
<path d="M80.4411 2.354L79.1811 3.014V1.31L81.3891 0.0799997H82.2351V8H80.4411V2.354Z" fill="white"/>
<path d="M123.173 1.664C123.217 1.504 123.303 1.324 123.431 1.124C123.559 0.924 123.733 0.733999 123.953 0.554C124.177 0.374 124.449 0.226 124.769 0.11C125.093 -0.00600052 125.467 -0.0640006 125.891 -0.0640006C126.395 -0.0640006 126.841 0.0299995 127.229 0.218C127.621 0.402 127.929 0.66 128.153 0.991999C128.377 1.324 128.489 1.712 128.489 2.156C128.489 2.424 128.441 2.67 128.345 2.894C128.249 3.114 128.125 3.298 127.973 3.446C127.821 3.594 127.661 3.69 127.493 3.734C127.689 3.758 127.885 3.848 128.081 4.004C128.281 4.16 128.449 4.368 128.585 4.628C128.725 4.888 128.795 5.194 128.795 5.546C128.795 6.05 128.667 6.498 128.411 6.89C128.159 7.278 127.813 7.584 127.373 7.808C126.933 8.032 126.429 8.144 125.861 8.144C125.273 8.144 124.773 8.04 124.361 7.832C123.953 7.624 123.627 7.37 123.383 7.07C123.143 6.77 122.983 6.48 122.903 6.2L124.547 5.384C124.595 5.556 124.675 5.736 124.787 5.924C124.903 6.112 125.051 6.272 125.231 6.404C125.411 6.532 125.619 6.596 125.855 6.596C126.099 6.596 126.307 6.548 126.479 6.452C126.651 6.356 126.783 6.226 126.875 6.062C126.971 5.894 127.019 5.702 127.019 5.486C127.019 5.262 126.965 5.076 126.857 4.928C126.753 4.78 126.613 4.67 126.437 4.598C126.261 4.526 126.067 4.49 125.855 4.49H125.699V3.206H125.903C126.087 3.206 126.253 3.17 126.401 3.098C126.549 3.022 126.665 2.916 126.749 2.78C126.837 2.64 126.881 2.476 126.881 2.288C126.881 2.036 126.795 1.822 126.623 1.646C126.451 1.466 126.201 1.376 125.873 1.376C125.673 1.376 125.497 1.412 125.345 1.484C125.197 1.552 125.073 1.64 124.973 1.748C124.873 1.852 124.793 1.96 124.733 2.072C124.677 2.18 124.641 2.274 124.625 2.354L123.173 1.664Z" fill="white"/>
</g>
<path d="M3.23963 27.652H1.34963V26.08H6.91763V27.652H5.03363V34H3.23963V27.652ZM13.4048 30.814H10.6688V34H8.88081V26.08H10.6688V29.248H13.4048V26.08H15.1868V34H13.4048V30.814ZM17.5449 26.08H22.6029V27.652H19.3329V29.266H22.5729V30.79H19.3329V32.428H22.6029V34H17.5449V26.08ZM33.391 26.08V34H31.603V29.338L31.681 28.012L31.375 29.53L30.043 33.364H28.285L26.959 29.53L26.659 28.012L26.737 29.338V34H24.943V26.08H27.463L29.059 31.366L29.167 31.996L29.275 31.366L30.871 26.08H33.391ZM35.8222 26.08H40.8802V27.652H37.6102V29.266H40.8502V30.79H37.6102V32.428H40.8802V34H35.8222V26.08Z" fill="white"/>
<defs>
<clipPath id="clip0_0_207">
<rect width="71" height="42" fill="white" transform="translate(68)"/>
</clipPath>
</defs>
</svg>
